<svg width="24" height="25" viewBox="0 0 24 25" fill="none" xmlns="http://www.w3.org/2000/svg">
<path d="M11.9963 17.4494C11.8647 17.4502 11.7342 17.4249 11.6124 17.3752C11.4905 17.3254 11.3797 17.2521 11.2863 17.1594L5.28628 11.1594C5.19304 11.0662 5.11908 10.9555 5.06862 10.8337C5.01816 10.7118 4.99219 10.5813 4.99219 10.4494C4.99219 10.1831 5.09798 9.92771 5.28628 9.7394C5.47458 9.5511 5.72998 9.44531 5.99628 9.44531C6.26258 9.44531 6.51798 9.5511 6.70628 9.7394L11.9963 15.0294L17.2863 9.7394C17.3795 9.64617 17.4902 9.5722 17.612 9.52174C17.7339 9.47128 17.8644 9.44531 17.9963 9.44531C18.1281 9.44531 18.2587 9.47128 18.3805 9.52174C18.5023 9.5722 18.613 9.64617 18.7063 9.7394C18.7995 9.83264 18.8735 9.94333 18.9239 10.0652C18.9744 10.187 19.0004 10.3175 19.0004 10.4494C19.0004 10.5813 18.9744 10.7118 18.9239 10.8337C18.8735 10.9555 18.7995 11.0662 18.7063 11.1594L12.7063 17.1594C12.6128 17.2521 12.502 17.3254 12.3802 17.3752C12.2583 17.4249 12.1279 17.4502 11.9963 17.4494Z" fill="#FCFCFC"/>
</svg>
